# xmcd CD database file
#
# Track frame offsets:
#	150
#	16357
#	31972
#	49625
#	66857
#	80827
#	99111
#	113343
#	130876
#	147826
#	164145
#	181318
#	195389
#	209893
#	223332
#	239034
#	253331
#	268643
#	282278
#	296177
#
# Disc length: 4221 seconds
#
# Revision: 0
# Processed by: cddbd v1.5.2PL0 Copyright (c) Steve Scherf et al.
# Submitted via: CDex 1.70beta2
#
DISCID=3f107b14
DTITLE=Sertanejão FM 2008 - Sertanejão FM 2008
DYEAR=2008
DGENRE=Country
TTITLE0=Quem Bebe, Vive Menos - Vitor Hugo
TTITLE1=Caso pos Caso - Cesar Menotti e Fabiano
TTITLE2=Coisa de Deus - Rick e Renner
TTITLE3=Me Apaixonei - Eduardo Costa
TTITLE4=Pode Chorar - Marcelinho de Lima e Camargo
TTITLE5=Porque Brigamos - Chitãozinho e Chororó
TTITLE6=Deus me Livre - Zezé de Camargo e Luciano
TTITLE7=Só de Você - Guilherme e Santiago
TTITLE8=Pra não Morrer de Amor - Bruno e Marrone
TTITLE9=Locutor - Erick e Leo
TTITLE10=Vou Doar Meu Coração - João Bosco e Vinicius
TTITLE11=O Fora - João Neto e Frederico
TTITLE12=Dou a Cara pra Bater - Gian e Giovani
TTITLE13=Modão de Cabra Macho - Mayck e Lyan
TTITLE14=A Primeira Letra - Daniel
TTITLE15=Bala da Vez - Gino e Geno
TTITLE16=Fala - Edson e Hudson
TTITLE17=Roela do Eno - Teodoro e Sampaio
TTITLE18=Tá no Meu Coração - Vitor Hugo
TTITLE19=Separação - Eduardo Costa
EXTD=YEAR: 2008
EXTT0=
EXTT1=
EXTT2=
EXTT3=
EXTT4=
EXTT5=
EXTT6=
EXTT7=
EXTT8=
EXTT9=
EXTT10=
EXTT11=
EXTT12=
EXTT13=
EXTT14=
EXTT15=
EXTT16=
EXTT17=
EXTT18=
EXTT19=
PLAYORDER=
